<?xml version="1.0" encoding="UTF-8" standalone="no"?>
<!DOCTYPE svg PUBLIC "-//W3C//DTD SVG 1.1//EN"
 "http://www.w3.org/Graphics/SVG/1.1/DTD/svg11.dtd">
<!-- Generated by graphviz version 2.36.0 (20140111.2315)
 -->
<!-- Title: fbp Pages: 1 -->
<svg width="204pt" height="62pt"
 viewBox="0.00 0.00 204.00 62.00" xmlns="http://www.w3.org/2000/svg" xmlns:xlink="http://www.w3.org/1999/xlink">
<g id="graph0" class="graph" transform="scale(1 1) rotate(0) translate(4 58)">
<title>fbp</title>
<polygon fill="white" stroke="none" points="-4,4 -4,-58 200,-58 200,4 -4,4"/>
<!-- light -->
<g id="node1" class="node"><title>light</title>
<polygon fill="#066c96" stroke="none" points="9,-21 9,-50 68,-50 68,-21 9,-21"/>
<polygon fill="none" stroke="#022d3f" points="9,-21 9,-50 68,-50 68,-21 9,-21"/>
<text text-anchor="start" x="26" y="-36.3" font-family="Helvetica,sans-Serif" font-size="14.00" fill="#ffffff">light</text>
<text text-anchor="start" x="12.5" y="-27.1" font-family="Helvetica,sans-Serif" font-size="8.00" fill="#ffffff">oic/server&#45;light</text>
<polygon fill="#033c54" stroke="none" points="9,-4 9,-21 68,-21 68,-4 9,-4"/>
<polygon fill="none" stroke="#022d3f" points="9,-4 9,-21 68,-21 68,-4 9,-4"/>
<text text-anchor="start" x="21" y="-10" font-family="Helvetica,sans-Serif" font-size="10.00" fill="#ffffff">STATE ◉</text>
</g>
<!-- LightState -->
<g id="node2" class="node"><title>LightState</title>
<polygon fill="#471ca4" stroke="none" points="120,-21 120,-50 188,-50 188,-21 120,-21"/>
<polygon fill="none" stroke="#1d0b45" points="120,-21 120,-50 188,-50 188,-21 120,-21"/>
<text text-anchor="start" x="123.5" y="-36.3" font-family="Helvetica,sans-Serif" font-size="14.00" fill="#ffffff">LightState</text>
<text text-anchor="start" x="140" y="-27.1" font-family="Helvetica,sans-Serif" font-size="8.00" fill="#ffffff">console</text>
<polygon fill="#35157b" stroke="none" points="120,-4 120,-21 188,-21 188,-4 120,-4"/>
<polygon fill="none" stroke="#1d0b45" points="120,-4 120,-21 188,-21 188,-4 120,-4"/>
<text text-anchor="start" x="123" y="-10" font-family="Helvetica,sans-Serif" font-size="10.00" fill="#ffffff">◎ IN</text>
</g>
<!-- light&#45;&gt;LightState -->
<g id="edge1" class="edge"><title>light:STATE:e&#45;&gt;LightState:IN:w</title>
<path fill="none" stroke="#00e788" stroke-width="2" d="M69,-12C89.6597,-12 95.9141,-12 114.548,-12"/>
<ellipse fill="#00e788" stroke="#00e788" stroke-width="2" cx="117" cy="-12" rx="2" ry="2"/>
</g>
</g>
</svg>
