<?xml version="1.0" encoding="UTF-8" standalone="no"?>
<!DOCTYPE svg PUBLIC "-//W3C//DTD SVG 1.1//EN"
 "http://www.w3.org/Graphics/SVG/1.1/DTD/svg11.dtd">
<!-- Generated by graphviz version 2.36.0 (20140111.2315)
 -->
<!-- Title: fbp Pages: 1 -->
<svg width="734pt" height="391pt"
 viewBox="0.00 0.00 734.00 391.00" xmlns="http://www.w3.org/2000/svg" xmlns:xlink="http://www.w3.org/1999/xlink">
<g id="graph0" class="graph" transform="scale(1 1) rotate(0) translate(4 387)">
<title>fbp</title>
<polygon fill="white" stroke="none" points="-4,4 -4,-387 730,-387 730,4 -4,4"/>
<!-- cmdline_arguments -->
<g id="node1" class="node"><title>cmdline_arguments</title>
<polygon fill="#4e2e10" stroke="none" points="139,-256 139,-285 266,-285 266,-256 139,-256"/>
<polygon fill="none" stroke="#201206" points="139,-256 139,-285 266,-285 266,-256 139,-256"/>
<text text-anchor="start" x="142.5" y="-271.3" font-family="Helvetica,sans-Serif" font-size="14.00" fill="#ffffff">cmdline_arguments</text>
<text text-anchor="start" x="177" y="-262.1" font-family="Helvetica,sans-Serif" font-size="8.00" fill="#ffffff">app/argc&#45;argv</text>
<polygon fill="#3a220c" stroke="none" points="139,-239 139,-256 266,-256 266,-239 139,-239"/>
<polygon fill="none" stroke="#201206" points="139,-239 139,-256 266,-256 266,-239 139,-239"/>
<text text-anchor="start" x="142" y="-245" font-family="Helvetica,sans-Serif" font-size="10.00" fill="#ffffff">◎ IN</text>
<polygon fill="#2b1909" stroke="none" points="139,-222 139,-239 266,-239 266,-222 139,-222"/>
<polygon fill="none" stroke="#201206" points="139,-222 139,-239 266,-239 266,-222 139,-222"/>
<text text-anchor="start" x="214" y="-228" font-family="Helvetica,sans-Serif" font-size="10.00" fill="#ffffff">ERROR ◉</text>
<polygon fill="#2b1909" stroke="none" points="139,-205 139,-222 266,-222 266,-205 139,-205"/>
<polygon fill="none" stroke="#201206" points="139,-205 139,-222 266,-222 266,-205 139,-205"/>
<text text-anchor="start" x="230" y="-211" font-family="Helvetica,sans-Serif" font-size="10.00" fill="#ffffff">OUT ◉</text>
</g>
<!-- cmdline_usage -->
<g id="node2" class="node"><title>cmdline_usage</title>
<polygon fill="#bd648a" stroke="none" points="319,-308 319,-337 418,-337 418,-308 319,-308"/>
<polygon fill="none" stroke="#4e2a39" points="319,-308 319,-337 418,-337 418,-308 319,-308"/>
<text text-anchor="start" x="322.5" y="-323.3" font-family="Helvetica,sans-Serif" font-size="14.00" fill="#000000">cmdline_usage</text>
<text text-anchor="start" x="323" y="-314.1" font-family="Helvetica,sans-Serif" font-size="8.00" fill="#000000">converter/empty&#45;to&#45;string</text>
<polygon fill="#8d4b67" stroke="none" points="319,-291 319,-308 418,-308 418,-291 319,-291"/>
<polygon fill="none" stroke="#4e2a39" points="319,-291 319,-308 418,-308 418,-291 319,-291"/>
<text text-anchor="start" x="322" y="-297" font-family="Helvetica,sans-Serif" font-size="10.00" fill="#ffffff">◎ IN</text>
<polygon fill="#69384d" stroke="none" points="319,-274 319,-291 418,-291 418,-274 319,-274"/>
<polygon fill="none" stroke="#4e2a39" points="319,-274 319,-291 418,-291 418,-274 319,-274"/>
<text text-anchor="start" x="382" y="-280" font-family="Helvetica,sans-Serif" font-size="10.00" fill="#ffffff">OUT ◉</text>
</g>
<!-- cmdline_arguments&#45;&gt;cmdline_usage -->
<g id="edge1" class="edge"><title>cmdline_arguments:ERROR:e&#45;&gt;cmdline_usage:IN:w</title>
<path fill="none" stroke="#d666ac" stroke-width="2" d="M267,-230C303.645,-230 281.743,-293.715 313.814,-298.692"/>
<ellipse fill="#d666ac" stroke="#d666ac" stroke-width="2" cx="316.005" cy="-298.853" rx="2" ry="2"/>
</g>
<!-- oic -->
<g id="node9" class="node"><title>oic</title>
<polygon fill="#066c96" stroke="none" points="332,-153 332,-182 405,-182 405,-153 332,-153"/>
<polygon fill="none" stroke="#022d3f" points="332,-153 332,-182 405,-182 405,-153 332,-153"/>
<text text-anchor="start" x="359.5" y="-168.3" font-family="Helvetica,sans-Serif" font-size="14.00" fill="#ffffff">oic</text>
<text text-anchor="start" x="344.5" y="-159.1" font-family="Helvetica,sans-Serif" font-size="8.00" fill="#ffffff">oic/client&#45;light</text>
<polygon fill="#045170" stroke="none" points="332,-136 332,-153 405,-153 405,-136 332,-136"/>
<polygon fill="none" stroke="#022d3f" points="332,-136 332,-153 405,-153 405,-136 332,-136"/>
<text text-anchor="start" x="335" y="-142" font-family="Helvetica,sans-Serif" font-size="10.00" fill="#ffffff">◎ DEVICE_ID</text>
<polygon fill="#045170" stroke="none" points="332,-119 332,-136 405,-136 405,-119 332,-119"/>
<polygon fill="none" stroke="#022d3f" points="332,-119 332,-136 405,-136 405,-119 332,-119"/>
<text text-anchor="start" x="335" y="-125" font-family="Helvetica,sans-Serif" font-size="10.00" fill="#ffffff">◎ STATE</text>
<polygon fill="#045170" stroke="none" points="332,-102 332,-119 405,-119 405,-102 332,-102"/>
<polygon fill="none" stroke="#022d3f" points="332,-102 332,-119 405,-119 405,-102 332,-102"/>
<text text-anchor="start" x="335" y="-108" font-family="Helvetica,sans-Serif" font-size="10.00" fill="#ffffff">◎ POWER</text>
<polygon fill="#033c54" stroke="none" points="332,-85 332,-102 405,-102 405,-85 332,-85"/>
<polygon fill="none" stroke="#022d3f" points="332,-85 332,-102 405,-102 405,-85 332,-85"/>
<text text-anchor="start" x="358" y="-91" font-family="Helvetica,sans-Serif" font-size="10.00" fill="#ffffff">STATE ◉</text>
<polygon fill="#033c54" stroke="none" points="332,-68 332,-85 405,-85 405,-68 332,-68"/>
<polygon fill="none" stroke="#022d3f" points="332,-68 332,-85 405,-85 405,-68 332,-68"/>
<text text-anchor="start" x="352" y="-74" font-family="Helvetica,sans-Serif" font-size="10.00" fill="#ffffff">POWER ◉</text>
</g>
<!-- cmdline_arguments&#45;&gt;oic -->
<g id="edge6" class="edge"><title>cmdline_arguments:OUT:e&#45;&gt;oic:DEVICE_ID:w</title>
<path fill="none" stroke="#2bb7e6" stroke-width="2" d="M267,-213C307.044,-213 290.759,-149.697 326.842,-145.246"/>
<ellipse fill="#2bb7e6" stroke="#2bb7e6" stroke-width="2" cx="329.003" cy="-145.118" rx="2" ry="2"/>
</g>
<!-- #anon:29:178 -->
<g id="node3" class="node"><title>#anon:29:178</title>
<polygon fill="#471ca4" stroke="none" points="513,-356 513,-378 567,-378 567,-356 513,-356"/>
<polygon fill="none" stroke="#1d0b45" points="513,-356 513,-378 567,-378 567,-356 513,-356"/>
<text text-anchor="start" x="516.5" y="-363.3" font-family="Helvetica,sans-Serif" font-size="14.00" fill="#ffffff">console</text>
<polygon fill="#35157b" stroke="none" points="513,-339 513,-356 567,-356 567,-339 513,-339"/>
<polygon fill="none" stroke="#1d0b45" points="513,-339 513,-356 567,-356 567,-339 513,-339"/>
<text text-anchor="start" x="516" y="-345" font-family="Helvetica,sans-Serif" font-size="10.00" fill="#ffffff">◎ IN</text>
</g>
<!-- cmdline_usage&#45;&gt;#anon:29:178 -->
<g id="edge2" class="edge"><title>cmdline_usage:OUT:e&#45;&gt;#anon:29:178:IN:w</title>
<path fill="none" stroke="#3b5f37" stroke-width="2" d="M419,-282C446.343,-282 439.39,-310.623 462,-326 480.762,-338.761 487.15,-346.107 507.944,-346.924"/>
<ellipse fill="#3b5f37" stroke="#3b5f37" stroke-width="2" cx="510" cy="-346.962" rx="2" ry="2"/>
</g>
<!-- #anon:30:25 -->
<g id="node4" class="node"><title>#anon:30:25</title>
<polygon fill="#bd648a" stroke="none" points="470,-291 470,-313 610,-313 610,-291 470,-291"/>
<polygon fill="none" stroke="#4e2a39" points="470,-291 470,-313 610,-313 610,-291 470,-291"/>
<text text-anchor="start" x="473.5" y="-298.3" font-family="Helvetica,sans-Serif" font-size="14.00" fill="#000000">converter/empty&#45;to&#45;int</text>
<polygon fill="#8d4b67" stroke="none" points="470,-274 470,-291 610,-291 610,-274 470,-274"/>
<polygon fill="none" stroke="#4e2a39" points="470,-274 470,-291 610,-291 610,-274 470,-274"/>
<text text-anchor="start" x="473" y="-280" font-family="Helvetica,sans-Serif" font-size="10.00" fill="#ffffff">◎ IN</text>
<polygon fill="#69384d" stroke="none" points="470,-257 470,-274 610,-274 610,-257 470,-257"/>
<polygon fill="none" stroke="#4e2a39" points="470,-257 470,-274 610,-274 610,-257 470,-257"/>
<text text-anchor="start" x="574" y="-263" font-family="Helvetica,sans-Serif" font-size="10.00" fill="#ffffff">OUT ◉</text>
</g>
<!-- cmdline_usage&#45;&gt;#anon:30:25 -->
<g id="edge3" class="edge"><title>cmdline_usage:OUT:e&#45;&gt;#anon:30:25:IN:w</title>
<path fill="none" stroke="#4a5acd" stroke-width="2" d="M419,-282C439.66,-282 445.914,-282 464.548,-282"/>
<ellipse fill="#4a5acd" stroke="#4a5acd" stroke-width="2" cx="467" cy="-282" rx="2" ry="2"/>
</g>
<!-- #anon:30:78 -->
<g id="node5" class="node"><title>#anon:30:78</title>
<polygon fill="#4e2e10" stroke="none" points="662,-274 662,-296 718,-296 718,-274 662,-274"/>
<polygon fill="none" stroke="#201206" points="662,-274 662,-296 718,-296 718,-274 662,-274"/>
<text text-anchor="start" x="665.5" y="-281.3" font-family="Helvetica,sans-Serif" font-size="14.00" fill="#ffffff">app/quit</text>
<polygon fill="#3a220c" stroke="none" points="662,-257 662,-274 718,-274 718,-257 662,-257"/>
<polygon fill="none" stroke="#201206" points="662,-257 662,-274 718,-274 718,-257 662,-257"/>
<text text-anchor="start" x="665" y="-263" font-family="Helvetica,sans-Serif" font-size="10.00" fill="#ffffff">◎ CODE</text>
</g>
<!-- #anon:30:25&#45;&gt;#anon:30:78 -->
<g id="edge4" class="edge"><title>#anon:30:25:OUT:e&#45;&gt;#anon:30:78:CODE:w</title>
<path fill="none" stroke="#1d49e5" stroke-width="2" d="M611,-265C631.66,-265 637.914,-265 656.548,-265"/>
<ellipse fill="#1d49e5" stroke="#1d49e5" stroke-width="2" cx="659" cy="-265" rx="2" ry="2"/>
</g>
<!-- #anon:32:1 -->
<g id="node6" class="node"><title>#anon:32:1</title>
<polygon fill="#e8ea7a" stroke="none" points="9,-257 9,-279 86,-279 86,-257 9,-257"/>
<polygon fill="none" stroke="#616233" points="9,-257 9,-279 86,-279 86,-257 9,-257"/>
<text text-anchor="start" x="12.5" y="-264.3" font-family="Helvetica,sans-Serif" font-size="14.00" fill="#000000">constant/int</text>
<polygon fill="#828344" stroke="none" points="9,-240 9,-257 86,-257 86,-240 9,-240"/>
<polygon fill="none" stroke="#616233" points="9,-240 9,-257 86,-257 86,-240 9,-240"/>
<text text-anchor="start" x="50" y="-246" font-family="Helvetica,sans-Serif" font-size="10.00" fill="#ffffff">OUT ◉</text>
</g>
<!-- #anon:32:1&#45;&gt;cmdline_arguments -->
<g id="edge5" class="edge"><title>#anon:32:1:OUT:e&#45;&gt;cmdline_arguments:IN:w</title>
<path fill="none" stroke="#d11fd0" stroke-width="2" d="M87,-248C108.25,-248 114.559,-248 133.941,-248"/>
<ellipse fill="#d11fd0" stroke="#d11fd0" stroke-width="2" cx="136" cy="-248" rx="2" ry="2"/>
</g>
<!-- controller -->
<g id="node7" class="node"><title>controller</title>
<polygon fill="#197112" stroke="none" points="509,-136 509,-165 572,-165 572,-136 509,-136"/>
<polygon fill="none" stroke="#092f06" points="509,-136 509,-165 572,-165 572,-136 509,-136"/>
<text text-anchor="start" x="512.5" y="-151.3" font-family="Helvetica,sans-Serif" font-size="14.00" fill="#ffffff">controller</text>
<text text-anchor="start" x="523.5" y="-142.1" font-family="Helvetica,sans-Serif" font-size="8.00" fill="#ffffff">controller</text>
<polygon fill="#12540d" stroke="none" points="509,-119 509,-136 572,-136 572,-119 509,-119"/>
<polygon fill="none" stroke="#092f06" points="509,-119 509,-136 572,-136 572,-119 509,-119"/>
<text text-anchor="start" x="512" y="-125" font-family="Helvetica,sans-Serif" font-size="10.00" fill="#ffffff">◎ STATE</text>
<polygon fill="#12540d" stroke="none" points="509,-102 509,-119 572,-119 572,-102 509,-102"/>
<polygon fill="none" stroke="#092f06" points="509,-102 509,-119 572,-119 572,-102 509,-102"/>
<text text-anchor="start" x="512" y="-108" font-family="Helvetica,sans-Serif" font-size="10.00" fill="#ffffff">◎ POWER</text>
<polygon fill="#0d3f09" stroke="none" points="509,-85 509,-102 572,-102 572,-85 509,-85"/>
<polygon fill="none" stroke="#092f06" points="509,-85 509,-102 572,-102 572,-85 509,-85"/>
<text text-anchor="start" x="525" y="-91" font-family="Helvetica,sans-Serif" font-size="10.00" fill="#ffffff">STATE ◉</text>
<polygon fill="#0d3f09" stroke="none" points="509,-68 509,-85 572,-85 572,-68 509,-68"/>
<polygon fill="none" stroke="#092f06" points="509,-68 509,-85 572,-85 572,-68 509,-68"/>
<text text-anchor="start" x="519" y="-74" font-family="Helvetica,sans-Serif" font-size="10.00" fill="#ffffff">POWER ◉</text>
</g>
<!-- controller&#45;&gt;oic -->
<g id="edge9" class="edge"><title>controller:STATE:e&#45;&gt;oic:STATE:w</title>
<path fill="none" stroke="#c087aa" stroke-width="2" d="M573,-128C591.228,-128 584.515,-155.747 572,-169 563.58,-177.916 474.172,-176.511 462,-178 440.097,-180.68 434.994,-184.216 413,-186 377.118,-188.91 357.674,-211.235 332,-186 314.691,-168.986 306.236,-132.604 326.815,-128.399"/>
<ellipse fill="#c087aa" stroke="#c087aa" stroke-width="2" cx="329.009" cy="-128.19" rx="2" ry="2"/>
</g>
<!-- controller&#45;&gt;oic -->
<g id="edge10" class="edge"><title>controller:POWER:e&#45;&gt;oic:POWER:w</title>
<path fill="none" stroke="#bb51f8" stroke-width="2" d="M573,-110C593.227,-110 586.437,-78.6674 572,-64.5 559.391,-52.1259 430.667,-64.0278 413,-64 377,-63.9434 357.731,-38.8223 332,-64 318.526,-77.1845 311.666,-105.153 326.697,-109.443"/>
<ellipse fill="#bb51f8" stroke="#bb51f8" stroke-width="2" cx="329.017" cy="-109.743" rx="2.00001" ry="2.00001"/>
</g>
<!-- note -->
<g id="node8" class="node"><title>note</title>
<polygon fill="#471ca4" stroke="none" points="30,-305 30,-334 65,-334 65,-305 30,-305"/>
<polygon fill="none" stroke="#1d0b45" points="30,-305 30,-334 65,-334 65,-305 30,-305"/>
<text text-anchor="start" x="34" y="-320.3" font-family="Helvetica,sans-Serif" font-size="14.00" fill="#ffffff">note</text>
<text text-anchor="start" x="33.5" y="-311.1" font-family="Helvetica,sans-Serif" font-size="8.00" fill="#ffffff">console</text>
</g>
<!-- oic&#45;&gt;controller -->
<g id="edge7" class="edge"><title>oic:STATE:e&#45;&gt;controller:STATE:w</title>
<path fill="none" stroke="#5f9606" stroke-width="2" d="M406,-128C449.917,-128 461.925,-128 503.848,-128"/>
<ellipse fill="#5f9606" stroke="#5f9606" stroke-width="2" cx="506" cy="-128" rx="2" ry="2"/>
</g>
<!-- oic&#45;&gt;controller -->
<g id="edge8" class="edge"><title>oic:POWER:e&#45;&gt;controller:POWER:w</title>
<path fill="none" stroke="#244054" stroke-width="2" d="M406,-110C449.917,-110 461.925,-110 503.848,-110"/>
<ellipse fill="#244054" stroke="#244054" stroke-width="2" cx="506" cy="-110" rx="2" ry="2"/>
</g>
<!-- #anon:50:17 -->
<g id="node10" class="node"><title>#anon:50:17</title>
<polygon fill="#471ca4" stroke="none" points="513,-208 513,-230 567,-230 567,-208 513,-208"/>
<polygon fill="none" stroke="#1d0b45" points="513,-208 513,-230 567,-230 567,-208 513,-208"/>
<text text-anchor="start" x="516.5" y="-215.3" font-family="Helvetica,sans-Serif" font-size="14.00" fill="#ffffff">console</text>
<polygon fill="#35157b" stroke="none" points="513,-191 513,-208 567,-208 567,-191 513,-191"/>
<polygon fill="none" stroke="#1d0b45" points="513,-191 513,-208 567,-208 567,-191 513,-191"/>
<text text-anchor="start" x="516" y="-197" font-family="Helvetica,sans-Serif" font-size="10.00" fill="#ffffff">◎ IN</text>
</g>
<!-- oic&#45;&gt;#anon:50:17 -->
<g id="edge11" class="edge"><title>oic:STATE:e&#45;&gt;#anon:50:17:IN:w</title>
<path fill="none" stroke="#75e35e" stroke-width="2" d="M406,-128C439.366,-128 433.788,-160.185 462,-178 481.185,-190.115 487.2,-198.031 507.948,-198.917"/>
<ellipse fill="#75e35e" stroke="#75e35e" stroke-width="2" cx="510" cy="-198.959" rx="2" ry="2"/>
</g>
<!-- #anon:51:17 -->
<g id="node11" class="node"><title>#anon:51:17</title>
<polygon fill="#471ca4" stroke="none" points="513,-20 513,-42 567,-42 567,-20 513,-20"/>
<polygon fill="none" stroke="#1d0b45" points="513,-20 513,-42 567,-42 567,-20 513,-20"/>
<text text-anchor="start" x="516.5" y="-27.3" font-family="Helvetica,sans-Serif" font-size="14.00" fill="#ffffff">console</text>
<polygon fill="#35157b" stroke="none" points="513,-3 513,-20 567,-20 567,-3 513,-3"/>
<polygon fill="none" stroke="#1d0b45" points="513,-3 513,-20 567,-20 567,-3 513,-3"/>
<text text-anchor="start" x="516" y="-9" font-family="Helvetica,sans-Serif" font-size="10.00" fill="#ffffff">◎ IN</text>
</g>
<!-- oic&#45;&gt;#anon:51:17 -->
<g id="edge12" class="edge"><title>oic:POWER:e&#45;&gt;#anon:51:17:IN:w</title>
<path fill="none" stroke="#d32b80" stroke-width="2" d="M406,-110C469.078,-110 448.482,-15.2082 507.964,-11.1351"/>
<ellipse fill="#d32b80" stroke="#d32b80" stroke-width="2" cx="510.001" cy="-11.067" rx="2" ry="2"/>
</g>
</g>
</svg>
