<?xml version="1.0" encoding="UTF-8" standalone="no"?>
<!DOCTYPE svg PUBLIC "-//W3C//DTD SVG 1.1//EN"
 "http://www.w3.org/Graphics/SVG/1.1/DTD/svg11.dtd">
<!-- Generated by graphviz version 2.36.0 (20140111.2315)
 -->
<!-- Title: fbp Pages: 1 -->
<svg width="307pt" height="446pt"
 viewBox="0.00 0.00 306.99 446.00" xmlns="http://www.w3.org/2000/svg" xmlns:xlink="http://www.w3.org/1999/xlink">
<g id="graph0" class="graph" transform="scale(1 1) rotate(0) translate(4 442)">
<title>fbp</title>
<polygon fill="white" stroke="none" points="-4,4 -4,-442 302.993,-442 302.993,4 -4,4"/>
<!-- oic_server -->
<g id="node1" class="node"><title>oic_server</title>
<polygon fill="#066c96" stroke="none" points="37,-205 37,-234 107,-234 107,-205 37,-205"/>
<polygon fill="none" stroke="#022d3f" points="37,-205 37,-234 107,-234 107,-205 37,-205"/>
<text text-anchor="start" x="40.5" y="-220.3" font-family="Helvetica,sans-Serif" font-size="14.00" fill="#ffffff">oic_server</text>
<text text-anchor="start" x="46" y="-211.1" font-family="Helvetica,sans-Serif" font-size="8.00" fill="#ffffff">oic/server&#45;light</text>
<polygon fill="#045170" stroke="none" points="37,-188 37,-205 107,-205 107,-188 37,-188"/>
<polygon fill="none" stroke="#022d3f" points="37,-188 37,-205 107,-205 107,-188 37,-188"/>
<text text-anchor="start" x="40" y="-194" font-family="Helvetica,sans-Serif" font-size="10.00" fill="#ffffff">◎ POWER</text>
<polygon fill="#045170" stroke="none" points="37,-171 37,-188 107,-188 107,-171 37,-171"/>
<polygon fill="none" stroke="#022d3f" points="37,-171 37,-188 107,-188 107,-171 37,-171"/>
<text text-anchor="start" x="40" y="-177" font-family="Helvetica,sans-Serif" font-size="10.00" fill="#ffffff">◎ STATE</text>
<polygon fill="#033c54" stroke="none" points="37,-154 37,-171 107,-171 107,-154 37,-154"/>
<polygon fill="none" stroke="#022d3f" points="37,-154 37,-171 107,-171 107,-154 37,-154"/>
<text text-anchor="start" x="54" y="-160" font-family="Helvetica,sans-Serif" font-size="10.00" fill="#ffffff">POWER ◉</text>
<polygon fill="#033c54" stroke="none" points="37,-137 37,-154 107,-154 107,-137 37,-137"/>
<polygon fill="none" stroke="#022d3f" points="37,-137 37,-154 107,-154 107,-137 37,-137"/>
<text text-anchor="start" x="60" y="-143" font-family="Helvetica,sans-Serif" font-size="10.00" fill="#ffffff">STATE ◉</text>
</g>
<!-- http_server -->
<g id="node2" class="node"><title>http_server</title>
<polygon fill="#46f3d6" stroke="none" points="202,-267 202,-296 277,-296 277,-267 202,-267"/>
<polygon fill="none" stroke="#1d665a" points="202,-267 202,-296 277,-296 277,-267 202,-267"/>
<text text-anchor="start" x="205.5" y="-282.3" font-family="Helvetica,sans-Serif" font-size="14.00" fill="#000000">http_server</text>
<text text-anchor="start" x="211" y="-273.1" font-family="Helvetica,sans-Serif" font-size="8.00" fill="#000000">http&#45;light&#45;server</text>
<polygon fill="#34b6a0" stroke="none" points="202,-250 202,-267 277,-267 277,-250 202,-250"/>
<polygon fill="none" stroke="#1d665a" points="202,-250 202,-267 277,-267 277,-250 202,-250"/>
<text text-anchor="start" x="205" y="-256" font-family="Helvetica,sans-Serif" font-size="10.00" fill="#000000">◎ POWER</text>
<polygon fill="#34b6a0" stroke="none" points="202,-233 202,-250 277,-250 277,-233 202,-233"/>
<polygon fill="none" stroke="#1d665a" points="202,-233 202,-250 277,-250 277,-233 202,-233"/>
<text text-anchor="start" x="205" y="-239" font-family="Helvetica,sans-Serif" font-size="10.00" fill="#000000">◎ STATE</text>
<polygon fill="#278878" stroke="none" points="202,-216 202,-233 277,-233 277,-216 202,-216"/>
<polygon fill="none" stroke="#1d665a" points="202,-216 202,-233 277,-233 277,-216 202,-216"/>
<text text-anchor="start" x="224" y="-222" font-family="Helvetica,sans-Serif" font-size="10.00" fill="#ffffff">POWER ◉</text>
<polygon fill="#278878" stroke="none" points="202,-199 202,-216 277,-216 277,-199 202,-199"/>
<polygon fill="none" stroke="#1d665a" points="202,-199 202,-216 277,-216 277,-199 202,-199"/>
<text text-anchor="start" x="230" y="-205" font-family="Helvetica,sans-Serif" font-size="10.00" fill="#ffffff">STATE ◉</text>
</g>
<!-- oic_server&#45;&gt;http_server -->
<g id="edge1" class="edge"><title>oic_server:POWER:e&#45;&gt;http_server:POWER:w</title>
<path fill="none" stroke="#2e3e2a" stroke-width="2" d="M108,-197C156.221,-197 151.648,-255.42 196.775,-258.843"/>
<ellipse fill="#2e3e2a" stroke="#2e3e2a" stroke-width="2" cx="199.001" cy="-258.926" rx="2" ry="2"/>
</g>
<!-- oic_server&#45;&gt;http_server -->
<g id="edge2" class="edge"><title>oic_server:STATE:e&#45;&gt;http_server:STATE:w</title>
<path fill="none" stroke="#033eda" stroke-width="2" d="M108,-179C156.221,-179 151.648,-237.42 196.775,-240.843"/>
<ellipse fill="#033eda" stroke="#033eda" stroke-width="2" cx="199.001" cy="-240.926" rx="2" ry="2"/>
</g>
<!-- persistence -->
<g id="node3" class="node"><title>persistence</title>
<polygon fill="#87078c" stroke="none" points="194,-144 194,-173 285,-173 285,-144 194,-144"/>
<polygon fill="none" stroke="#38023a" points="194,-144 194,-173 285,-173 285,-144 194,-144"/>
<text text-anchor="start" x="204.5" y="-159.3" font-family="Helvetica,sans-Serif" font-size="14.00" fill="#ffffff">persistence</text>
<text text-anchor="start" x="197.5" y="-150.1" font-family="Helvetica,sans-Serif" font-size="8.00" fill="#ffffff">persistence&#45;light&#45;server</text>
<polygon fill="#650569" stroke="none" points="194,-127 194,-144 285,-144 285,-127 194,-127"/>
<polygon fill="none" stroke="#38023a" points="194,-127 194,-144 285,-144 285,-127 194,-127"/>
<text text-anchor="start" x="197" y="-133" font-family="Helvetica,sans-Serif" font-size="10.00" fill="#ffffff">◎ POWER</text>
<polygon fill="#650569" stroke="none" points="194,-110 194,-127 285,-127 285,-110 194,-110"/>
<polygon fill="none" stroke="#38023a" points="194,-110 194,-127 285,-127 285,-110 194,-110"/>
<text text-anchor="start" x="197" y="-116" font-family="Helvetica,sans-Serif" font-size="10.00" fill="#ffffff">◎ STATE</text>
<polygon fill="#4b034e" stroke="none" points="194,-93 194,-110 285,-110 285,-93 194,-93"/>
<polygon fill="none" stroke="#38023a" points="194,-93 194,-110 285,-110 285,-93 194,-93"/>
<text text-anchor="start" x="232" y="-99" font-family="Helvetica,sans-Serif" font-size="10.00" fill="#ffffff">POWER ◉</text>
<polygon fill="#4b034e" stroke="none" points="194,-76 194,-93 285,-93 285,-76 194,-76"/>
<polygon fill="none" stroke="#38023a" points="194,-76 194,-93 285,-93 285,-76 194,-76"/>
<text text-anchor="start" x="238" y="-82" font-family="Helvetica,sans-Serif" font-size="10.00" fill="#ffffff">STATE ◉</text>
</g>
<!-- oic_server&#45;&gt;persistence -->
<g id="edge5" class="edge"><title>oic_server:POWER:e&#45;&gt;persistence:POWER:w</title>
<path fill="none" stroke="#01284c" stroke-width="2" d="M108,-197C153.046,-197 146.948,-139.753 188.797,-136.175"/>
<ellipse fill="#01284c" stroke="#01284c" stroke-width="2" cx="191.002" cy="-136.083" rx="2" ry="2"/>
</g>
<!-- oic_server&#45;&gt;persistence -->
<g id="edge6" class="edge"><title>oic_server:STATE:e&#45;&gt;persistence:STATE:w</title>
<path fill="none" stroke="#80c052" stroke-width="2" d="M108,-179C153.046,-179 146.948,-121.753 188.797,-118.175"/>
<ellipse fill="#80c052" stroke="#80c052" stroke-width="2" cx="191.002" cy="-118.083" rx="2" ry="2"/>
</g>
<!-- power_actuator -->
<g id="node4" class="node"><title>power_actuator</title>
<polygon fill="#dca0a2" stroke="none" points="189,-340 189,-369 290,-369 290,-340 189,-340"/>
<polygon fill="none" stroke="#5c4343" points="189,-340 189,-369 290,-369 290,-340 189,-340"/>
<text text-anchor="start" x="192.5" y="-355.3" font-family="Helvetica,sans-Serif" font-size="14.00" fill="#000000">power_actuator</text>
<text text-anchor="start" x="212.5" y="-346.1" font-family="Helvetica,sans-Serif" font-size="8.00" fill="#000000">PowerActuator</text>
<polygon fill="#a57879" stroke="none" points="189,-323 189,-340 290,-340 290,-323 189,-323"/>
<polygon fill="none" stroke="#5c4343" points="189,-323 189,-340 290,-340 290,-323 189,-323"/>
<text text-anchor="start" x="192" y="-329" font-family="Helvetica,sans-Serif" font-size="10.00" fill="#000000">◎ IN</text>
</g>
<!-- oic_server&#45;&gt;power_actuator -->
<g id="edge9" class="edge"><title>oic_server:POWER:e&#45;&gt;power_actuator:IN:w</title>
<path fill="none" stroke="#0db042" stroke-width="2" d="M108,-197C175.872,-197 121.102,-325.304 183.704,-330.817"/>
<ellipse fill="#0db042" stroke="#0db042" stroke-width="2" cx="186.002" cy="-330.915" rx="2" ry="2"/>
</g>
<!-- state_actuator -->
<g id="node5" class="node"><title>state_actuator</title>
<polygon fill="#11731e" stroke="none" points="193,-21 193,-50 286,-50 286,-21 193,-21"/>
<polygon fill="none" stroke="#06300c" points="193,-21 193,-50 286,-50 286,-21 193,-21"/>
<text text-anchor="start" x="196.5" y="-36.3" font-family="Helvetica,sans-Serif" font-size="14.00" fill="#ffffff">state_actuator</text>
<text text-anchor="start" x="215" y="-27.1" font-family="Helvetica,sans-Serif" font-size="8.00" fill="#ffffff">StateActuator</text>
<polygon fill="#0c5616" stroke="none" points="193,-4 193,-21 286,-21 286,-4 193,-4"/>
<polygon fill="none" stroke="#06300c" points="193,-4 193,-21 286,-21 286,-4 193,-4"/>
<text text-anchor="start" x="196" y="-10" font-family="Helvetica,sans-Serif" font-size="10.00" fill="#ffffff">◎ IN</text>
</g>
<!-- oic_server&#45;&gt;state_actuator -->
<g id="edge10" class="edge"><title>oic_server:STATE:e&#45;&gt;state_actuator:IN:w</title>
<path fill="none" stroke="#7352ea" stroke-width="2" d="M108,-179C189.622,-179 111.755,-17.8195 187.77,-12.153"/>
<ellipse fill="#7352ea" stroke="#7352ea" stroke-width="2" cx="190.001" cy="-12.0723" rx="2" ry="2"/>
</g>
<!-- http_server&#45;&gt;oic_server -->
<g id="edge3" class="edge"><title>http_server:POWER:e&#45;&gt;oic_server:POWER:w</title>
<path fill="none" stroke="#31151e" stroke-width="2" d="M278,-259C296.228,-259 290.045,-287.269 277,-300 263.641,-313.037 211.334,-303.51 193,-300 119.722,-285.972 79.6455,-299.219 37,-238 27.4766,-224.329 19.2983,-201.394 31.8836,-197.553"/>
<ellipse fill="#31151e" stroke="#31151e" stroke-width="2" cx="34.0178" cy="-197.267" rx="2.00001" ry="2.00001"/>
</g>
<!-- http_server&#45;&gt;oic_server -->
<g id="edge4" class="edge"><title>http_server:STATE:e&#45;&gt;oic_server:STATE:w</title>
<path fill="none" stroke="#1c15ee" stroke-width="2" d="M278,-241C298.227,-241 290.752,-210.333 277,-195.5 262.275,-179.617 200.044,-194.205 180,-186 145.633,-171.933 150.013,-145.874 115,-133.5 82.3145,-121.949 61.7809,-109.258 37,-133.5 23.6706,-146.54 16.8774,-174.206 31.7444,-178.449"/>
<ellipse fill="#1c15ee" stroke="#1c15ee" stroke-width="2" cx="34.0166" cy="-178.743" rx="2.00001" ry="2.00001"/>
</g>
<!-- persistence&#45;&gt;oic_server -->
<g id="edge7" class="edge"><title>persistence:POWER:e&#45;&gt;oic_server:POWER:w</title>
<path fill="none" stroke="#b94764" stroke-width="2" d="M286,-136C304.228,-136 297.489,-163.723 285,-177 268.954,-194.058 201.747,-177.311 180,-186 145.645,-199.727 149.91,-225.754 115,-238 82.2876,-249.475 61.8101,-262.212 37,-238 25.076,-226.363 18.8857,-201.744 31.8304,-197.599"/>
<ellipse fill="#b94764" stroke="#b94764" stroke-width="2" cx="34.0203" cy="-197.284" rx="2.00001" ry="2.00001"/>
</g>
<!-- persistence&#45;&gt;oic_server -->
<g id="edge8" class="edge"><title>persistence:STATE:e&#45;&gt;oic_server:STATE:w</title>
<path fill="none" stroke="#38af7a" stroke-width="2" d="M286,-118C306.227,-118 299.459,-86.6447 285,-72.5 269.115,-56.9601 206.799,-68.1838 185,-72.5 115.209,-86.3187 77.2255,-74.8175 37,-133.5 26.4572,-148.88 17.3128,-174.572 31.7954,-178.492"/>
<ellipse fill="#38af7a" stroke="#38af7a" stroke-width="2" cx="34.0144" cy="-178.76" rx="2.00001" ry="2.00001"/>
</g>
<!-- #anon:62:1 -->
<g id="node6" class="node"><title>#anon:62:1</title>
<polygon fill="#b747fe" stroke="none" points="8,-412 8,-434 136,-434 136,-412 8,-412"/>
<polygon fill="none" stroke="#4c1d6a" points="8,-412 8,-434 136,-434 136,-412 8,-412"/>
<text text-anchor="start" x="11.5" y="-419.3" font-family="Helvetica,sans-Serif" font-size="14.00" fill="#ffffff">platform/machine&#45;id</text>
<polygon fill="#66278e" stroke="none" points="8,-395 8,-412 136,-412 136,-395 8,-395"/>
<polygon fill="none" stroke="#4c1d6a" points="8,-395 8,-412 136,-412 136,-395 8,-395"/>
<text text-anchor="start" x="100" y="-401" font-family="Helvetica,sans-Serif" font-size="10.00" fill="#ffffff">OUT ◉</text>
</g>
<!-- #anon:62:34 -->
<g id="node7" class="node"><title>#anon:62:34</title>
<polygon fill="#471ca4" stroke="none" points="212,-412 212,-434 266,-434 266,-412 212,-412"/>
<polygon fill="none" stroke="#1d0b45" points="212,-412 212,-434 266,-434 266,-412 212,-412"/>
<text text-anchor="start" x="215.5" y="-419.3" font-family="Helvetica,sans-Serif" font-size="14.00" fill="#ffffff">console</text>
<polygon fill="#35157b" stroke="none" points="212,-395 212,-412 266,-412 266,-395 212,-395"/>
<polygon fill="none" stroke="#1d0b45" points="212,-395 212,-412 266,-412 266,-395 212,-395"/>
<text text-anchor="start" x="215" y="-401" font-family="Helvetica,sans-Serif" font-size="10.00" fill="#ffffff">◎ IN</text>
</g>
<!-- #anon:62:1&#45;&gt;#anon:62:34 -->
<g id="edge11" class="edge"><title>#anon:62:1:OUT:e&#45;&gt;#anon:62:34:IN:w</title>
<path fill="none" stroke="#d8531e" stroke-width="2" d="M137,-403C168.476,-403 177.359,-403 206.893,-403"/>
<ellipse fill="#d8531e" stroke="#d8531e" stroke-width="2" cx="209" cy="-403" rx="2" ry="2"/>
</g>
</g>
</svg>
