<?xml version="1.0" encoding="UTF-8" standalone="no"?>
<!DOCTYPE svg PUBLIC "-//W3C//DTD SVG 1.1//EN"
 "http://www.w3.org/Graphics/SVG/1.1/DTD/svg11.dtd">
<!-- Generated by graphviz version 2.36.0 (20140111.2315)
 -->
<!-- Title: fbp Pages: 1 -->
<svg width="978pt" height="434pt"
 viewBox="0.00 0.00 978.00 434.00" xmlns="http://www.w3.org/2000/svg" xmlns:xlink="http://www.w3.org/1999/xlink">
<g id="graph0" class="graph" transform="scale(1 1) rotate(0) translate(4 430)">
<title>fbp</title>
<polygon fill="white" stroke="none" points="-4,4 -4,-430 974,-430 974,4 -4,4"/>
<!-- lcd -->
<g id="node1" class="node"><title>lcd</title>
<polygon fill="#c93a30" stroke="none" points="583,-30 583,-59 612,-59 612,-30 583,-30"/>
<polygon fill="none" stroke="#541814" points="583,-30 583,-59 612,-59 612,-30 583,-30"/>
<text text-anchor="start" x="588.5" y="-45.3" font-family="Helvetica,sans-Serif" font-size="14.00" fill="#ffffff">lcd</text>
<text text-anchor="start" x="589" y="-36.1" font-family="Helvetica,sans-Serif" font-size="8.00" fill="#ffffff">LCD</text>
<polygon fill="#962b24" stroke="none" points="583,-13 583,-30 612,-30 612,-13 583,-13"/>
<polygon fill="none" stroke="#541814" points="583,-13 583,-30 612,-30 612,-13 583,-13"/>
<text text-anchor="start" x="586" y="-19" font-family="Helvetica,sans-Serif" font-size="10.00" fill="#ffffff">◎ IN</text>
</g>
<!-- next -->
<g id="node2" class="node"><title>next</title>
<polygon fill="#76315e" stroke="none" points="10,-193 10,-222 50,-222 50,-193 10,-193"/>
<polygon fill="none" stroke="#311427" points="10,-193 10,-222 50,-222 50,-193 10,-193"/>
<text text-anchor="start" x="17" y="-208.3" font-family="Helvetica,sans-Serif" font-size="14.00" fill="#ffffff">next</text>
<text text-anchor="start" x="15.5" y="-199.1" font-family="Helvetica,sans-Serif" font-size="8.00" fill="#ffffff">BtnNext</text>
<polygon fill="#421b34" stroke="none" points="10,-176 10,-193 50,-193 50,-176 10,-176"/>
<polygon fill="none" stroke="#311427" points="10,-176 10,-193 50,-193 50,-176 10,-176"/>
<text text-anchor="start" x="14" y="-182" font-family="Helvetica,sans-Serif" font-size="10.00" fill="#ffffff">OUT ◉</text>
</g>
<!-- #anon:51:27 -->
<g id="node12" class="node"><title>#anon:51:27</title>
<polygon fill="#bd648a" stroke="none" points="105,-193 105,-215 278,-215 278,-193 105,-193"/>
<polygon fill="none" stroke="#4e2a39" points="105,-193 105,-215 278,-215 278,-193 105,-193"/>
<text text-anchor="start" x="108.5" y="-200.3" font-family="Helvetica,sans-Serif" font-size="14.00" fill="#000000">converter/boolean&#45;to&#45;empty</text>
<polygon fill="#8d4b67" stroke="none" points="105,-176 105,-193 278,-193 278,-176 105,-176"/>
<polygon fill="none" stroke="#4e2a39" points="105,-176 105,-193 278,-193 278,-176 105,-176"/>
<text text-anchor="start" x="108" y="-182" font-family="Helvetica,sans-Serif" font-size="10.00" fill="#ffffff">◎ PULSE_IF_TRUE</text>
<polygon fill="#69384d" stroke="none" points="105,-159 105,-176 278,-176 278,-159 105,-159"/>
<polygon fill="none" stroke="#4e2a39" points="105,-159 105,-176 278,-176 278,-159 105,-159"/>
<text text-anchor="start" x="242" y="-165" font-family="Helvetica,sans-Serif" font-size="10.00" fill="#ffffff">OUT ◉</text>
</g>
<!-- next&#45;&gt;#anon:51:27 -->
<g id="edge8" class="edge"><title>next:OUT:e&#45;&gt;#anon:51:27:PULSE_IF_TRUE:w</title>
<path fill="none" stroke="#5c7746" stroke-width="2" d="M51,-184C73.0833,-184 79.6393,-184 99.7817,-184"/>
<ellipse fill="#5c7746" stroke="#5c7746" stroke-width="2" cx="102" cy="-184" rx="2" ry="2"/>
</g>
<!-- select -->
<g id="node3" class="node"><title>select</title>
<polygon fill="#41df88" stroke="none" points="9,-111 9,-140 52,-140 52,-111 9,-111"/>
<polygon fill="none" stroke="#1b5d39" points="9,-111 9,-140 52,-140 52,-111 9,-111"/>
<text text-anchor="start" x="12.5" y="-126.3" font-family="Helvetica,sans-Serif" font-size="14.00" fill="#000000">select</text>
<text text-anchor="start" x="13.5" y="-117.1" font-family="Helvetica,sans-Serif" font-size="8.00" fill="#000000">BtnSelect</text>
<polygon fill="#247d4c" stroke="none" points="9,-94 9,-111 52,-111 52,-94 9,-94"/>
<polygon fill="none" stroke="#1b5d39" points="9,-94 9,-111 52,-111 52,-94 9,-94"/>
<text text-anchor="start" x="16" y="-100" font-family="Helvetica,sans-Serif" font-size="10.00" fill="#ffffff">OUT ◉</text>
</g>
<!-- #anon:52:29 -->
<g id="node13" class="node"><title>#anon:52:29</title>
<polygon fill="#bd648a" stroke="none" points="105,-111 105,-133 278,-133 278,-111 105,-111"/>
<polygon fill="none" stroke="#4e2a39" points="105,-111 105,-133 278,-133 278,-111 105,-111"/>
<text text-anchor="start" x="108.5" y="-118.3" font-family="Helvetica,sans-Serif" font-size="14.00" fill="#000000">converter/boolean&#45;to&#45;empty</text>
<polygon fill="#8d4b67" stroke="none" points="105,-94 105,-111 278,-111 278,-94 105,-94"/>
<polygon fill="none" stroke="#4e2a39" points="105,-94 105,-111 278,-111 278,-94 105,-94"/>
<text text-anchor="start" x="108" y="-100" font-family="Helvetica,sans-Serif" font-size="10.00" fill="#ffffff">◎ PULSE_IF_TRUE</text>
<polygon fill="#69384d" stroke="none" points="105,-77 105,-94 278,-94 278,-77 105,-77"/>
<polygon fill="none" stroke="#4e2a39" points="105,-77 105,-94 278,-94 278,-77 105,-77"/>
<text text-anchor="start" x="242" y="-83" font-family="Helvetica,sans-Serif" font-size="10.00" fill="#ffffff">OUT ◉</text>
</g>
<!-- select&#45;&gt;#anon:52:29 -->
<g id="edge10" class="edge"><title>select:OUT:e&#45;&gt;#anon:52:29:PULSE_IF_TRUE:w</title>
<path fill="none" stroke="#24e31a" stroke-width="2" d="M53,-102C74.25,-102 80.5586,-102 99.9409,-102"/>
<ellipse fill="#24e31a" stroke="#24e31a" stroke-width="2" cx="102" cy="-102" rx="2" ry="2"/>
</g>
<!-- light_button -->
<g id="node4" class="node"><title>light_button</title>
<polygon fill="#4ccb5c" stroke="none" points="153,-272 153,-301 230,-301 230,-272 153,-272"/>
<polygon fill="none" stroke="#1f5526" points="153,-272 153,-301 230,-301 230,-272 153,-272"/>
<text text-anchor="start" x="156.5" y="-287.3" font-family="Helvetica,sans-Serif" font-size="14.00" fill="#000000">light_button</text>
<text text-anchor="start" x="176.5" y="-278.1" font-family="Helvetica,sans-Serif" font-size="8.00" fill="#000000">BtnLight</text>
<polygon fill="#2a7233" stroke="none" points="153,-255 153,-272 230,-272 230,-255 153,-255"/>
<polygon fill="none" stroke="#1f5526" points="153,-255 153,-272 230,-272 230,-255 153,-255"/>
<text text-anchor="start" x="194" y="-261" font-family="Helvetica,sans-Serif" font-size="10.00" fill="#ffffff">OUT ◉</text>
</g>
<!-- #anon:54:35 -->
<g id="node14" class="node"><title>#anon:54:35</title>
<polygon fill="#bd648a" stroke="none" points="331,-272 331,-294 504,-294 504,-272 331,-272"/>
<polygon fill="none" stroke="#4e2a39" points="331,-272 331,-294 504,-294 504,-272 331,-272"/>
<text text-anchor="start" x="334.5" y="-279.3" font-family="Helvetica,sans-Serif" font-size="14.00" fill="#000000">converter/boolean&#45;to&#45;empty</text>
<polygon fill="#8d4b67" stroke="none" points="331,-255 331,-272 504,-272 504,-255 331,-255"/>
<polygon fill="none" stroke="#4e2a39" points="331,-255 331,-272 504,-272 504,-255 331,-255"/>
<text text-anchor="start" x="334" y="-261" font-family="Helvetica,sans-Serif" font-size="10.00" fill="#ffffff">◎ PULSE_IF_TRUE</text>
<polygon fill="#69384d" stroke="none" points="331,-238 331,-255 504,-255 504,-238 331,-238"/>
<polygon fill="none" stroke="#4e2a39" points="331,-238 331,-255 504,-255 504,-238 331,-238"/>
<text text-anchor="start" x="468" y="-244" font-family="Helvetica,sans-Serif" font-size="10.00" fill="#ffffff">OUT ◉</text>
</g>
<!-- light_button&#45;&gt;#anon:54:35 -->
<g id="edge13" class="edge"><title>light_button:OUT:e&#45;&gt;#anon:54:35:PULSE_IF_TRUE:w</title>
<path fill="none" stroke="#4d2d52" stroke-width="2" d="M231,-263C273.625,-263 285.28,-263 325.97,-263"/>
<ellipse fill="#4d2d52" stroke="#4d2d52" stroke-width="2" cx="328" cy="-263" rx="2" ry="2"/>
</g>
<!-- status -->
<g id="node5" class="node"><title>status</title>
<polygon fill="#07e58a" stroke="none" points="916,-315 916,-344 962,-344 962,-315 916,-315"/>
<polygon fill="none" stroke="#026039" points="916,-315 916,-344 962,-344 962,-315 916,-315"/>
<text text-anchor="start" x="920.5" y="-330.3" font-family="Helvetica,sans-Serif" font-size="14.00" fill="#000000">status</text>
<text text-anchor="start" x="919.5" y="-321.1" font-family="Helvetica,sans-Serif" font-size="8.00" fill="#000000">LEDStatus</text>
<polygon fill="#05ab67" stroke="none" points="916,-298 916,-315 962,-315 962,-298 916,-298"/>
<polygon fill="none" stroke="#026039" points="916,-298 916,-315 962,-315 962,-298 916,-298"/>
<text text-anchor="start" x="919" y="-304" font-family="Helvetica,sans-Serif" font-size="10.00" fill="#ffffff">◎ IN</text>
</g>
<!-- #anon:38:1 -->
<g id="node6" class="node"><title>#anon:38:1</title>
<polygon fill="#e8ea7a" stroke="none" points="722,-400 722,-422 832,-422 832,-400 722,-400"/>
<polygon fill="none" stroke="#616233" points="722,-400 722,-422 832,-422 832,-400 722,-400"/>
<text text-anchor="start" x="725.5" y="-407.3" font-family="Helvetica,sans-Serif" font-size="14.00" fill="#000000">constant/boolean</text>
<polygon fill="#828344" stroke="none" points="722,-383 722,-400 832,-400 832,-383 722,-383"/>
<polygon fill="none" stroke="#616233" points="722,-383 722,-400 832,-400 832,-383 722,-383"/>
<text text-anchor="start" x="796" y="-389" font-family="Helvetica,sans-Serif" font-size="10.00" fill="#ffffff">OUT ◉</text>
</g>
<!-- #anon:38:1&#45;&gt;status -->
<g id="edge1" class="edge"><title>#anon:38:1:OUT:e&#45;&gt;status:IN:w</title>
<path fill="none" stroke="#3949f5" stroke-width="2" d="M833,-391C852.686,-391 857.417,-383.224 872,-370 896.294,-347.969 882.085,-309.489 910.857,-306.222"/>
<ellipse fill="#3949f5" stroke="#3949f5" stroke-width="2" cx="913.003" cy="-306.107" rx="2" ry="2"/>
</g>
<!-- wait -->
<g id="node7" class="node"><title>wait</title>
<polygon fill="#e8ea7a" stroke="none" points="388,-21 388,-50 447,-50 447,-21 388,-21"/>
<polygon fill="none" stroke="#616233" points="388,-21 388,-50 447,-50 447,-21 388,-21"/>
<text text-anchor="start" x="405" y="-36.3" font-family="Helvetica,sans-Serif" font-size="14.00" fill="#000000">wait</text>
<text text-anchor="start" x="391.5" y="-27.1" font-family="Helvetica,sans-Serif" font-size="8.00" fill="#000000">constant/string</text>
<polygon fill="#828344" stroke="none" points="388,-4 388,-21 447,-21 447,-4 388,-4"/>
<polygon fill="none" stroke="#616233" points="388,-4 388,-21 447,-21 447,-4 388,-4"/>
<text text-anchor="start" x="411" y="-10" font-family="Helvetica,sans-Serif" font-size="10.00" fill="#ffffff">OUT ◉</text>
</g>
<!-- wait&#45;&gt;lcd -->
<g id="edge2" class="edge"><title>wait:OUT:e&#45;&gt;lcd:IN:w</title>
<path fill="none" stroke="#649a12" stroke-width="2" d="M448,-12C506.291,-12 521.6,-20.5831 577.876,-20.9854"/>
<ellipse fill="#649a12" stroke="#649a12" stroke-width="2" cx="580" cy="-20.9929" rx="2" ry="2"/>
</g>
<!-- light -->
<g id="node8" class="node"><title>light</title>
<polygon fill="#066c96" stroke="none" points="741,-246 741,-275 814,-275 814,-246 741,-246"/>
<polygon fill="none" stroke="#022d3f" points="741,-246 741,-275 814,-275 814,-246 741,-246"/>
<text text-anchor="start" x="765" y="-261.3" font-family="Helvetica,sans-Serif" font-size="14.00" fill="#ffffff">light</text>
<text text-anchor="start" x="753.5" y="-252.1" font-family="Helvetica,sans-Serif" font-size="8.00" fill="#ffffff">oic/client&#45;light</text>
<polygon fill="#045170" stroke="none" points="741,-229 741,-246 814,-246 814,-229 741,-229"/>
<polygon fill="none" stroke="#022d3f" points="741,-229 741,-246 814,-246 814,-229 741,-229"/>
<text text-anchor="start" x="744" y="-235" font-family="Helvetica,sans-Serif" font-size="10.00" fill="#ffffff">◎ SCAN</text>
<polygon fill="#045170" stroke="none" points="741,-212 741,-229 814,-229 814,-212 741,-212"/>
<polygon fill="none" stroke="#022d3f" points="741,-212 741,-229 814,-229 814,-212 741,-212"/>
<text text-anchor="start" x="744" y="-218" font-family="Helvetica,sans-Serif" font-size="10.00" fill="#ffffff">◎ STATE</text>
<polygon fill="#045170" stroke="none" points="741,-195 741,-212 814,-212 814,-195 741,-195"/>
<polygon fill="none" stroke="#022d3f" points="741,-195 741,-212 814,-212 814,-195 741,-195"/>
<text text-anchor="start" x="744" y="-201" font-family="Helvetica,sans-Serif" font-size="10.00" fill="#ffffff">◎ DEVICE_ID</text>
<polygon fill="#033c54" stroke="none" points="741,-178 741,-195 814,-195 814,-178 741,-178"/>
<polygon fill="none" stroke="#022d3f" points="741,-178 741,-195 814,-195 814,-178 741,-178"/>
<text text-anchor="start" x="745" y="-184" font-family="Helvetica,sans-Serif" font-size="10.00" fill="#ffffff">DEVICE_ID ◉</text>
<polygon fill="#033c54" stroke="none" points="741,-161 741,-178 814,-178 814,-161 741,-161"/>
<polygon fill="none" stroke="#022d3f" points="741,-161 741,-178 814,-178 814,-161 741,-161"/>
<text text-anchor="start" x="767" y="-167" font-family="Helvetica,sans-Serif" font-size="10.00" fill="#ffffff">STATE ◉</text>
</g>
<!-- light&#45;&gt;status -->
<g id="edge12" class="edge"><title>light:STATE:e&#45;&gt;status:IN:w</title>
<path fill="none" stroke="#774f30" stroke-width="2" d="M815,-221C871.85,-221 857.467,-301.738 910.699,-305.838"/>
<ellipse fill="#774f30" stroke="#774f30" stroke-width="2" cx="913.001" cy="-305.925" rx="2" ry="2"/>
</g>
<!-- light_selector -->
<g id="node9" class="node"><title>light_selector</title>
<polygon fill="#31ef62" stroke="none" points="374,-178 374,-207 461,-207 461,-178 374,-178"/>
<polygon fill="none" stroke="#146428" points="374,-178 374,-207 461,-207 461,-178 374,-178"/>
<text text-anchor="start" x="377.5" y="-193.3" font-family="Helvetica,sans-Serif" font-size="14.00" fill="#000000">light_selector</text>
<text text-anchor="start" x="394" y="-184.1" font-family="Helvetica,sans-Serif" font-size="8.00" fill="#000000">form/selector</text>
<polygon fill="#24b349" stroke="none" points="374,-161 374,-178 461,-178 461,-161 374,-161"/>
<polygon fill="none" stroke="#146428" points="374,-161 374,-178 461,-178 461,-161 374,-161"/>
<text text-anchor="start" x="377" y="-167" font-family="Helvetica,sans-Serif" font-size="10.00" fill="#ffffff">◎ ADD_ITEM</text>
<polygon fill="#24b349" stroke="none" points="374,-144 374,-161 461,-161 461,-144 374,-144"/>
<polygon fill="none" stroke="#146428" points="374,-144 374,-161 461,-161 461,-144 374,-144"/>
<text text-anchor="start" x="377" y="-150" font-family="Helvetica,sans-Serif" font-size="10.00" fill="#ffffff">◎ NEXT</text>
<polygon fill="#24b349" stroke="none" points="374,-127 374,-144 461,-144 461,-127 374,-127"/>
<polygon fill="none" stroke="#146428" points="374,-127 374,-144 461,-144 461,-127 374,-127"/>
<text text-anchor="start" x="377" y="-133" font-family="Helvetica,sans-Serif" font-size="10.00" fill="#ffffff">◎ SELECT</text>
<polygon fill="#24b349" stroke="none" points="374,-110 374,-127 461,-127 461,-110 374,-110"/>
<polygon fill="none" stroke="#146428" points="374,-110 374,-127 461,-127 461,-110 374,-110"/>
<text text-anchor="start" x="377" y="-116" font-family="Helvetica,sans-Serif" font-size="10.00" fill="#ffffff">◎ SELECTED</text>
<polygon fill="#1b8636" stroke="none" points="374,-93 374,-110 461,-110 461,-93 374,-93"/>
<polygon fill="none" stroke="#146428" points="374,-93 374,-110 461,-110 461,-93 374,-93"/>
<text text-anchor="start" x="408" y="-99" font-family="Helvetica,sans-Serif" font-size="10.00" fill="#ffffff">STRING ◉</text>
<polygon fill="#1b8636" stroke="none" points="374,-76 374,-93 461,-93 461,-76 374,-76"/>
<polygon fill="none" stroke="#146428" points="374,-76 374,-93 461,-93 461,-76 374,-76"/>
<text text-anchor="start" x="393" y="-82" font-family="Helvetica,sans-Serif" font-size="10.00" fill="#ffffff">SELECTED ◉</text>
</g>
<!-- light&#45;&gt;light_selector -->
<g id="edge4" class="edge"><title>light:DEVICE_ID:e&#45;&gt;light_selector:ADD_ITEM:w</title>
<path fill="none" stroke="#e66684" stroke-width="2" d="M815,-203C835.449,-203 828.616,-171.302 814,-157 787.951,-131.511 768.258,-153.316 732,-157 613.284,-169.062 587.716,-198.938 469,-211 426.994,-215.268 404.217,-240.489 374,-211 362.076,-199.363 355.886,-174.744 368.83,-170.599"/>
<ellipse fill="#e66684" stroke="#e66684" stroke-width="2" cx="371.02" cy="-170.284" rx="2.00001" ry="2.00001"/>
</g>
<!-- light_selector&#45;&gt;lcd -->
<g id="edge5" class="edge"><title>light_selector:STRING:e&#45;&gt;lcd:IN:w</title>
<path fill="none" stroke="#43779b" stroke-width="2" d="M462,-101C524.722,-101 518.22,-24.4006 577.967,-21.1092"/>
<ellipse fill="#43779b" stroke="#43779b" stroke-width="2" cx="580.001" cy="-21.0542" rx="2" ry="2"/>
</g>
<!-- persistence -->
<g id="node16" class="node"><title>persistence</title>
<polygon fill="#f0ca58" stroke="none" points="557,-127 557,-156 638,-156 638,-127 557,-127"/>
<polygon fill="none" stroke="#655424" points="557,-127 557,-156 638,-156 638,-127 557,-127"/>
<text text-anchor="start" x="562.5" y="-142.3" font-family="Helvetica,sans-Serif" font-size="14.00" fill="#000000">persistence</text>
<text text-anchor="start" x="560.5" y="-133.1" font-family="Helvetica,sans-Serif" font-size="8.00" fill="#000000">DeviceIDPersistence</text>
<polygon fill="#b49742" stroke="none" points="557,-110 557,-127 638,-127 638,-110 557,-110"/>
<polygon fill="none" stroke="#655424" points="557,-110 557,-127 638,-127 638,-110 557,-110"/>
<text text-anchor="start" x="560" y="-116" font-family="Helvetica,sans-Serif" font-size="10.00" fill="#000000">◎ IN</text>
<polygon fill="#877131" stroke="none" points="557,-93 557,-110 638,-110 638,-93 557,-93"/>
<polygon fill="none" stroke="#655424" points="557,-93 557,-110 638,-110 638,-93 557,-93"/>
<text text-anchor="start" x="602" y="-99" font-family="Helvetica,sans-Serif" font-size="10.00" fill="#ffffff">OUT ◉</text>
</g>
<!-- light_selector&#45;&gt;persistence -->
<g id="edge16" class="edge"><title>light_selector:SELECTED:e&#45;&gt;persistence:IN:w</title>
<path fill="none" stroke="#d9139c" stroke-width="2" d="M462,-118C502.309,-118 513.449,-118 551.707,-118"/>
<ellipse fill="#d9139c" stroke="#d9139c" stroke-width="2" cx="554" cy="-118" rx="2" ry="2"/>
</g>
<!-- scan -->
<g id="node10" class="node"><title>scan</title>
<polygon fill="#7f2fae" stroke="none" points="564,-344 564,-373 630,-373 630,-344 564,-344"/>
<polygon fill="none" stroke="#351348" points="564,-344 564,-373 630,-373 630,-344 564,-344"/>
<text text-anchor="start" x="568.5" y="-359.3" font-family="Helvetica,sans-Serif" font-size="14.00" fill="#ffffff">🕐 Timer</text>
<text text-anchor="start" x="587.5" y="-350.1" font-family="Helvetica,sans-Serif" font-size="8.00" fill="#ffffff">timer</text>
<polygon fill="#5f2382" stroke="none" points="564,-327 564,-344 630,-344 630,-327 564,-327"/>
<polygon fill="none" stroke="#351348" points="564,-327 564,-344 630,-344 630,-327 564,-327"/>
<text text-anchor="start" x="567" y="-333" font-family="Helvetica,sans-Serif" font-size="10.00" fill="#ffffff">◎ ENABLED</text>
<polygon fill="#471a61" stroke="none" points="564,-310 564,-327 630,-327 630,-310 564,-310"/>
<polygon fill="none" stroke="#351348" points="564,-310 564,-327 630,-327 630,-310 564,-310"/>
<text text-anchor="start" x="594" y="-316" font-family="Helvetica,sans-Serif" font-size="10.00" fill="#ffffff">OUT ◉</text>
</g>
<!-- scan&#45;&gt;light -->
<g id="edge3" class="edge"><title>scan:OUT:e&#45;&gt;light:SCAN:w</title>
<path fill="none" stroke="#36992c" stroke-width="2" d="M631,-318C689.684,-318 680.393,-241.706 735.89,-238.13"/>
<ellipse fill="#36992c" stroke="#36992c" stroke-width="2" cx="738.001" cy="-238.063" rx="2" ry="2"/>
</g>
<!-- #anon:49:16 -->
<g id="node11" class="node"><title>#anon:49:16</title>
<polygon fill="#bd648a" stroke="none" points="691,-335 691,-357 864,-357 864,-335 691,-335"/>
<polygon fill="none" stroke="#4e2a39" points="691,-335 691,-357 864,-357 864,-335 691,-335"/>
<text text-anchor="start" x="694.5" y="-342.3" font-family="Helvetica,sans-Serif" font-size="14.00" fill="#000000">converter/empty&#45;to&#45;boolean</text>
<polygon fill="#8d4b67" stroke="none" points="691,-318 691,-335 864,-335 864,-318 691,-318"/>
<polygon fill="none" stroke="#4e2a39" points="691,-318 691,-335 864,-335 864,-318 691,-318"/>
<text text-anchor="start" x="694" y="-324" font-family="Helvetica,sans-Serif" font-size="10.00" fill="#ffffff">◎ IN</text>
<polygon fill="#69384d" stroke="none" points="691,-301 691,-318 864,-318 864,-301 691,-301"/>
<polygon fill="none" stroke="#4e2a39" points="691,-301 691,-318 864,-318 864,-301 691,-301"/>
<text text-anchor="start" x="828" y="-307" font-family="Helvetica,sans-Serif" font-size="10.00" fill="#ffffff">OUT ◉</text>
</g>
<!-- scan&#45;&gt;#anon:49:16 -->
<g id="edge6" class="edge"><title>scan:OUT:e&#45;&gt;#anon:49:16:IN:w</title>
<path fill="none" stroke="#a64372" stroke-width="2" d="M631,-318C656.015,-318 662.812,-325.149 685.835,-325.931"/>
<ellipse fill="#a64372" stroke="#a64372" stroke-width="2" cx="688" cy="-325.967" rx="2" ry="2"/>
</g>
<!-- #anon:49:16&#45;&gt;scan -->
<g id="edge7" class="edge"><title>#anon:49:16:OUT:e&#45;&gt;scan:ENABLED:w</title>
<path fill="none" stroke="#065949" stroke-width="2" d="M865,-309C870.352,-309 867.938,-300.624 864,-297 849.119,-283.307 702.206,-296.188 682,-297 668.857,-297.528 573.088,-296.991 564,-306.5 556.338,-314.517 551.615,-330.325 559.045,-334.151"/>
<ellipse fill="#065949" stroke="#065949" stroke-width="2" cx="561.045" cy="-334.58" rx="2.00001" ry="2.00001"/>
</g>
<!-- #anon:51:27&#45;&gt;light_selector -->
<g id="edge9" class="edge"><title>#anon:51:27:OUT:e&#45;&gt;light_selector:NEXT:w</title>
<path fill="none" stroke="#fe6006" stroke-width="2" d="M279,-167C319.754,-167 330.051,-153.967 368.664,-153.051"/>
<ellipse fill="#fe6006" stroke="#fe6006" stroke-width="2" cx="371" cy="-153.023" rx="2" ry="2"/>
</g>
<!-- #anon:52:29&#45;&gt;light_selector -->
<g id="edge11" class="edge"><title>#anon:52:29:OUT:e&#45;&gt;light_selector:SELECT:w</title>
<path fill="none" stroke="#024d64" stroke-width="2" d="M279,-85C324.934,-85 325.676,-132.113 368.962,-134.874"/>
<ellipse fill="#024d64" stroke="#024d64" stroke-width="2" cx="371.001" cy="-134.937" rx="2" ry="2"/>
</g>
<!-- toggle -->
<g id="node15" class="node"><title>toggle</title>
<polygon fill="#184294" stroke="none" points="567,-255 567,-284 627,-284 627,-255 567,-255"/>
<polygon fill="none" stroke="#091b3e" points="567,-255 567,-284 627,-284 627,-255 567,-255"/>
<text text-anchor="start" x="578.5" y="-270.3" font-family="Helvetica,sans-Serif" font-size="14.00" fill="#ffffff">toggle</text>
<text text-anchor="start" x="570.5" y="-261.1" font-family="Helvetica,sans-Serif" font-size="8.00" fill="#ffffff">boolean/toggle</text>
<polygon fill="#12316f" stroke="none" points="567,-238 567,-255 627,-255 627,-238 567,-238"/>
<polygon fill="none" stroke="#091b3e" points="567,-238 567,-255 627,-255 627,-238 567,-238"/>
<text text-anchor="start" x="570" y="-244" font-family="Helvetica,sans-Serif" font-size="10.00" fill="#ffffff">◎ IN</text>
<polygon fill="#0d2453" stroke="none" points="567,-221 567,-238 627,-238 627,-221 567,-221"/>
<polygon fill="none" stroke="#091b3e" points="567,-221 567,-238 627,-238 627,-221 567,-221"/>
<text text-anchor="start" x="591" y="-227" font-family="Helvetica,sans-Serif" font-size="10.00" fill="#ffffff">OUT ◉</text>
</g>
<!-- #anon:54:35&#45;&gt;toggle -->
<g id="edge14" class="edge"><title>#anon:54:35:OUT:e&#45;&gt;toggle:IN:w</title>
<path fill="none" stroke="#e816ce" stroke-width="2" d="M505,-246C530.628,-246 538.087,-246 561.728,-246"/>
<ellipse fill="#e816ce" stroke="#e816ce" stroke-width="2" cx="564" cy="-246" rx="2" ry="2"/>
</g>
<!-- toggle&#45;&gt;light -->
<g id="edge15" class="edge"><title>toggle:OUT:e&#45;&gt;light:STATE:w</title>
<path fill="none" stroke="#69194e" stroke-width="2" d="M628,-229C676.54,-229 689.401,-221.432 735.989,-221.018"/>
<ellipse fill="#69194e" stroke="#69194e" stroke-width="2" cx="738" cy="-221.009" rx="2" ry="2"/>
</g>
<!-- persistence&#45;&gt;light -->
<g id="edge17" class="edge"><title>persistence:OUT:e&#45;&gt;light:DEVICE_ID:w</title>
<path fill="none" stroke="#fe9d3e" stroke-width="2" d="M639,-101C701.302,-101 677.399,-198.275 735.661,-202.835"/>
<ellipse fill="#fe9d3e" stroke="#fe9d3e" stroke-width="2" cx="738.001" cy="-202.924" rx="2" ry="2"/>
</g>
<!-- persistence&#45;&gt;light_selector -->
<g id="edge18" class="edge"><title>persistence:OUT:e&#45;&gt;light_selector:SELECTED:w</title>
<path fill="none" stroke="#6fad88" stroke-width="2" d="M639,-101C644.13,-101 641.603,-93.1522 638,-89.5 621.644,-72.921 391.167,-55.7066 374,-72.5 360.671,-85.5397 353.877,-113.206 368.744,-117.449"/>
<ellipse fill="#6fad88" stroke="#6fad88" stroke-width="2" cx="371.017" cy="-117.743" rx="2.00001" ry="2.00001"/>
</g>
</g>
</svg>
